<?xml version="1.0" encoding="UTF-8"?>
<svg xmlns="http://www.w3.org/2000/svg" xmlns:xlink="http://www.w3.org/1999/xlink" width="503pt" height="164pt" viewBox="0 0 503 164" version="1.1">
<g id="surface16458">
<rect x="0" y="0" width="503" height="164" style="fill:rgb(100%,100%,100%);fill-opacity:1;stroke:none;"/>
<path style="fill:none;stroke-width:0.1;stroke-linecap:butt;stroke-linejoin:miter;stroke:rgb(0%,0%,0%);stroke-opacity:1;stroke-miterlimit:10;" d="M 6.5 6 L 6.5 14 " transform="matrix(20,0,0,20,-128,-118)"/>
<path style="fill:none;stroke-width:0.1;stroke-linecap:butt;stroke-linejoin:miter;stroke:rgb(0%,0%,0%);stroke-opacity:1;stroke-miterlimit:10;" d="M 7.5 6 L 7.5 14 " transform="matrix(20,0,0,20,-128,-118)"/>
<path style="fill:none;stroke-width:0.1;stroke-linecap:butt;stroke-linejoin:miter;stroke:rgb(0%,0%,0%);stroke-opacity:1;stroke-miterlimit:10;" d="M 8.5 6 L 8.5 14 " transform="matrix(20,0,0,20,-128,-118)"/>
<path style="fill:none;stroke-width:0.1;stroke-linecap:butt;stroke-linejoin:miter;stroke:rgb(0%,0%,0%);stroke-opacity:1;stroke-miterlimit:10;" d="M 9.5 6 L 9.5 14 " transform="matrix(20,0,0,20,-128,-118)"/>
<path style="fill:none;stroke-width:0.1;stroke-linecap:butt;stroke-linejoin:miter;stroke:rgb(0%,0%,0%);stroke-opacity:1;stroke-miterlimit:10;" d="M 10.5 6 L 10.5 14 " transform="matrix(20,0,0,20,-128,-118)"/>
<path style="fill:none;stroke-width:0.1;stroke-linecap:butt;stroke-linejoin:miter;stroke:rgb(0%,0%,0%);stroke-opacity:1;stroke-miterlimit:10;" d="M 11.5 6 L 11.5 14 " transform="matrix(20,0,0,20,-128,-118)"/>
<path style="fill:none;stroke-width:0.1;stroke-linecap:butt;stroke-linejoin:miter;stroke:rgb(0%,0%,0%);stroke-opacity:1;stroke-miterlimit:10;" d="M 12.5 6 L 12.5 14 " transform="matrix(20,0,0,20,-128,-118)"/>
<path style="fill:none;stroke-width:0.1;stroke-linecap:butt;stroke-linejoin:miter;stroke:rgb(0%,0%,0%);stroke-opacity:1;stroke-miterlimit:10;" d="M 13.5 6 L 13.5 14 " transform="matrix(20,0,0,20,-128,-118)"/>
<path style="fill:none;stroke-width:0.1;stroke-linecap:butt;stroke-linejoin:miter;stroke:rgb(0%,0%,0%);stroke-opacity:1;stroke-miterlimit:10;" d="M 6.5 6 L 14.5 6 " transform="matrix(20,0,0,20,-128,-118)"/>
<path style="fill:none;stroke-width:0.1;stroke-linecap:butt;stroke-linejoin:miter;stroke:rgb(0%,0%,0%);stroke-opacity:1;stroke-miterlimit:10;" d="M 6.5 7 L 14.5 7 " transform="matrix(20,0,0,20,-128,-118)"/>
<path style="fill:none;stroke-width:0.1;stroke-linecap:butt;stroke-linejoin:miter;stroke:rgb(0%,0%,0%);stroke-opacity:1;stroke-miterlimit:10;" d="M 6.5 8 L 14.5 8 " transform="matrix(20,0,0,20,-128,-118)"/>
<path style="fill:none;stroke-width:0.1;stroke-linecap:butt;stroke-linejoin:miter;stroke:rgb(0%,0%,0%);stroke-opacity:1;stroke-miterlimit:10;" d="M 6.5 9 L 14.5 9 " transform="matrix(20,0,0,20,-128,-118)"/>
<path style="fill:none;stroke-width:0.1;stroke-linecap:butt;stroke-linejoin:miter;stroke:rgb(0%,0%,0%);stroke-opacity:1;stroke-miterlimit:10;" d="M 14.5 10 L 6.5 10 " transform="matrix(20,0,0,20,-128,-118)"/>
<path style="fill:none;stroke-width:0.1;stroke-linecap:butt;stroke-linejoin:miter;stroke:rgb(0%,0%,0%);stroke-opacity:1;stroke-miterlimit:10;" d="M 6.5 11 L 14.5 11 " transform="matrix(20,0,0,20,-128,-118)"/>
<path style="fill:none;stroke-width:0.1;stroke-linecap:butt;stroke-linejoin:miter;stroke:rgb(0%,0%,0%);stroke-opacity:1;stroke-miterlimit:10;" d="M 6.5 12 L 14.5 12 " transform="matrix(20,0,0,20,-128,-118)"/>
<path style="fill:none;stroke-width:0.1;stroke-linecap:butt;stroke-linejoin:miter;stroke:rgb(0%,0%,0%);stroke-opacity:1;stroke-miterlimit:10;" d="M 6.5 13 L 14.5 13 " transform="matrix(20,0,0,20,-128,-118)"/>
<path style="fill:none;stroke-width:0.1;stroke-linecap:butt;stroke-linejoin:miter;stroke:rgb(0%,0%,0%);stroke-opacity:1;stroke-miterlimit:10;" d="M 6.5 14 L 14.5 14 " transform="matrix(20,0,0,20,-128,-118)"/>
<path style="fill:none;stroke-width:0.1;stroke-linecap:butt;stroke-linejoin:miter;stroke:rgb(0%,0%,0%);stroke-opacity:1;stroke-miterlimit:10;" d="M 14.5 6 L 14.5 14 " transform="matrix(20,0,0,20,-128,-118)"/>
<path style="fill:none;stroke-width:0.1;stroke-linecap:butt;stroke-linejoin:miter;stroke:rgb(0%,0%,0%);stroke-opacity:1;stroke-miterlimit:10;" d="M 15 6 L 23 6 " transform="matrix(20,0,0,20,-128,-118)"/>
<path style="fill:none;stroke-width:0.1;stroke-linecap:butt;stroke-linejoin:miter;stroke:rgb(0%,0%,0%);stroke-opacity:1;stroke-miterlimit:10;" d="M 15 6 L 15 14 " transform="matrix(20,0,0,20,-128,-118)"/>
<path style="fill:none;stroke-width:0.1;stroke-linecap:butt;stroke-linejoin:miter;stroke:rgb(0%,0%,0%);stroke-opacity:1;stroke-miterlimit:10;" d="M 15 14 L 23 14 " transform="matrix(20,0,0,20,-128,-118)"/>
<path style="fill:none;stroke-width:0.1;stroke-linecap:butt;stroke-linejoin:miter;stroke:rgb(0%,0%,0%);stroke-opacity:1;stroke-miterlimit:10;" d="M 23 6 L 23 14 " transform="matrix(20,0,0,20,-128,-118)"/>
<path style="fill:none;stroke-width:0.1;stroke-linecap:butt;stroke-linejoin:miter;stroke:rgb(0%,0%,0%);stroke-opacity:1;stroke-miterlimit:10;" d="M 16 10 L 22 10 " transform="matrix(20,0,0,20,-128,-118)"/>
<path style="fill:none;stroke-width:0.1;stroke-linecap:butt;stroke-linejoin:miter;stroke:rgb(0%,0%,0%);stroke-opacity:1;stroke-miterlimit:10;" d="M 19 7 L 19 13 " transform="matrix(20,0,0,20,-128,-118)"/>
<path style="fill:none;stroke-width:0.1;stroke-linecap:butt;stroke-linejoin:miter;stroke:rgb(0%,0%,0%);stroke-opacity:1;stroke-miterlimit:10;" d="M 18.5 7 C 17.833398 8.944531 17.833398 11.055469 18.5 13 " transform="matrix(20,0,0,20,-128,-118)"/>
<path style="fill:none;stroke-width:0.1;stroke-linecap:butt;stroke-linejoin:miter;stroke:rgb(0%,0%,0%);stroke-opacity:1;stroke-miterlimit:10;" d="M 17.998633 7.066992 C 16.930469 8.878516 16.92832 11.126758 17.993359 12.940039 " transform="matrix(20,0,0,20,-128,-118)"/>
<path style="fill:none;stroke-width:0.1;stroke-linecap:butt;stroke-linejoin:miter;stroke:rgb(0%,0%,0%);stroke-opacity:1;stroke-miterlimit:10;" d="M 17.195508 7.241992 C 16.395898 8.992969 16.396289 11.005078 17.19668 12.755664 " transform="matrix(20,0,0,20,-128,-118)"/>
<path style="fill:none;stroke-width:0.1;stroke-linecap:butt;stroke-linejoin:miter;stroke:rgb(0%,0%,0%);stroke-opacity:1;stroke-miterlimit:10;" d="M 16.50918 7.481836 C 15.839844 9.096484 15.837109 10.910352 16.501367 12.527148 " transform="matrix(20,0,0,20,-128,-118)"/>
<path style="fill:none;stroke-width:0.1;stroke-linecap:butt;stroke-linejoin:miter;stroke:rgb(0%,0%,0%);stroke-opacity:1;stroke-miterlimit:10;" d="M 19.5 7 C 20.166602 8.944531 20.166602 11.055469 19.5 13 " transform="matrix(20,0,0,20,-128,-118)"/>
<path style="fill:none;stroke-width:0.1;stroke-linecap:butt;stroke-linejoin:miter;stroke:rgb(0%,0%,0%);stroke-opacity:1;stroke-miterlimit:10;" d="M 20 7.057617 C 21.068555 8.872266 21.071094 11.123242 20.00625 12.940039 " transform="matrix(20,0,0,20,-128,-118)"/>
<path style="fill:none;stroke-width:0.1;stroke-linecap:butt;stroke-linejoin:miter;stroke:rgb(0%,0%,0%);stroke-opacity:1;stroke-miterlimit:10;" d="M 20.803125 7.251367 C 21.605078 8.999219 21.607422 11.00918 20.809375 12.758789 " transform="matrix(20,0,0,20,-128,-118)"/>
<path style="fill:none;stroke-width:0.1;stroke-linecap:butt;stroke-linejoin:miter;stroke:rgb(0%,0%,0%);stroke-opacity:1;stroke-miterlimit:10;" d="M 21.495313 7.478711 C 22.161914 9.093359 22.161914 10.90625 21.495313 12.520898 " transform="matrix(20,0,0,20,-128,-118)"/>
<path style="fill:none;stroke-width:0.1;stroke-linecap:butt;stroke-linejoin:miter;stroke:rgb(0%,0%,0%);stroke-opacity:1;stroke-miterlimit:10;" d="M 16.48418 7.506836 C 18.096289 6.839063 19.907422 6.838086 21.520313 7.503711 " transform="matrix(20,0,0,20,-128,-118)"/>
<path style="fill:none;stroke-width:0.1;stroke-linecap:butt;stroke-linejoin:miter;stroke:rgb(0%,0%,0%);stroke-opacity:1;stroke-miterlimit:10;" d="M 16.476367 12.495898 C 18.091992 13.161523 19.905469 13.160352 21.520313 12.492773 " transform="matrix(20,0,0,20,-128,-118)"/>
<path style="fill:none;stroke-width:0.1;stroke-linecap:butt;stroke-linejoin:miter;stroke:rgb(0%,0%,0%);stroke-opacity:1;stroke-miterlimit:10;" d="M 16 9.6 C 17.919922 8.8 20.080078 8.8 22 9.6 " transform="matrix(20,0,0,20,-128,-118)"/>
<path style="fill:none;stroke-width:0.1;stroke-linecap:butt;stroke-linejoin:miter;stroke:rgb(0%,0%,0%);stroke-opacity:1;stroke-miterlimit:10;" d="M 16.062109 8.997461 C 17.877148 7.931641 20.126953 7.933008 21.940625 9.000586 " transform="matrix(20,0,0,20,-128,-118)"/>
<path style="fill:none;stroke-width:0.1;stroke-linecap:butt;stroke-linejoin:miter;stroke:rgb(0%,0%,0%);stroke-opacity:1;stroke-miterlimit:10;" d="M 16.237109 8.197461 C 17.992188 7.397461 20.007617 7.397461 21.7625 8.197461 " transform="matrix(20,0,0,20,-128,-118)"/>
<path style="fill:none;stroke-width:0.1;stroke-linecap:butt;stroke-linejoin:miter;stroke:rgb(0%,0%,0%);stroke-opacity:1;stroke-miterlimit:10;" d="M 16 10.4 C 17.919922 11.2 20.080078 11.2 22 10.4 " transform="matrix(20,0,0,20,-128,-118)"/>
<path style="fill:none;stroke-width:0.1;stroke-linecap:butt;stroke-linejoin:miter;stroke:rgb(0%,0%,0%);stroke-opacity:1;stroke-miterlimit:10;" d="M 16.062109 11.013086 C 17.876953 12.078906 20.126758 12.077734 21.940625 11.010352 " transform="matrix(20,0,0,20,-128,-118)"/>
<path style="fill:none;stroke-width:0.1;stroke-linecap:butt;stroke-linejoin:miter;stroke:rgb(0%,0%,0%);stroke-opacity:1;stroke-miterlimit:10;" d="M 16.240234 11.809961 C 17.99082 12.609961 20.002539 12.610156 21.753125 11.810352 " transform="matrix(20,0,0,20,-128,-118)"/>
<path style="fill:none;stroke-width:0.1;stroke-linecap:butt;stroke-linejoin:miter;stroke:rgb(0%,0%,0%);stroke-opacity:1;stroke-miterlimit:10;" d="M 23.5 6 L 31.5 6 " transform="matrix(20,0,0,20,-128,-118)"/>
<path style="fill:none;stroke-width:0.1;stroke-linecap:butt;stroke-linejoin:miter;stroke:rgb(0%,0%,0%);stroke-opacity:1;stroke-miterlimit:10;" d="M 23.5 6 L 23.5 14 " transform="matrix(20,0,0,20,-128,-118)"/>
<path style="fill:none;stroke-width:0.1;stroke-linecap:butt;stroke-linejoin:miter;stroke:rgb(0%,0%,0%);stroke-opacity:1;stroke-miterlimit:10;" d="M 23.5 14 L 31.5 14 " transform="matrix(20,0,0,20,-128,-118)"/>
<path style="fill:none;stroke-width:0.1;stroke-linecap:butt;stroke-linejoin:miter;stroke:rgb(0%,0%,0%);stroke-opacity:1;stroke-miterlimit:10;" d="M 31.5 6 L 31.5 14 " transform="matrix(20,0,0,20,-128,-118)"/>
<path style="fill:none;stroke-width:0.1;stroke-linecap:butt;stroke-linejoin:miter;stroke:rgb(0%,0%,0%);stroke-opacity:1;stroke-miterlimit:10;" d="M 27.5 6 L 27.5 14 " transform="matrix(20,0,0,20,-128,-118)"/>
<path style="fill:none;stroke-width:0.1;stroke-linecap:butt;stroke-linejoin:miter;stroke:rgb(0%,0%,0%);stroke-opacity:1;stroke-miterlimit:10;" d="M 23.5 10 L 31.5 10 " transform="matrix(20,0,0,20,-128,-118)"/>
<path style="fill:none;stroke-width:0.1;stroke-linecap:butt;stroke-linejoin:miter;stroke:rgb(0%,0%,0%);stroke-opacity:1;stroke-miterlimit:10;" d="M 23.5 8.5 C 26.125 9.166602 28.875 9.166602 31.5 8.5 " transform="matrix(20,0,0,20,-128,-118)"/>
<path style="fill:none;stroke-width:0.1;stroke-linecap:butt;stroke-linejoin:miter;stroke:rgb(0%,0%,0%);stroke-opacity:1;stroke-miterlimit:10;" d="M 23.5 7 C 26 8.333398 29 8.333398 31.5 7 " transform="matrix(20,0,0,20,-128,-118)"/>
<path style="fill:none;stroke-width:0.1;stroke-linecap:butt;stroke-linejoin:miter;stroke:rgb(0%,0%,0%);stroke-opacity:1;stroke-miterlimit:10;" d="M 24 6 C 26.142773 7.333398 28.857227 7.333398 31 6 " transform="matrix(20,0,0,20,-128,-118)"/>
<path style="fill:none;stroke-width:0.1;stroke-linecap:butt;stroke-linejoin:miter;stroke:rgb(0%,0%,0%);stroke-opacity:1;stroke-miterlimit:10;" d="M 23.5 11.5 C 26.125 10.833398 28.875 10.833398 31.5 11.5 " transform="matrix(20,0,0,20,-128,-118)"/>
<path style="fill:none;stroke-width:0.1;stroke-linecap:butt;stroke-linejoin:miter;stroke:rgb(0%,0%,0%);stroke-opacity:1;stroke-miterlimit:10;" d="M 23.5 13 C 26 11.666602 29 11.666602 31.5 13 " transform="matrix(20,0,0,20,-128,-118)"/>
<path style="fill:none;stroke-width:0.1;stroke-linecap:butt;stroke-linejoin:miter;stroke:rgb(0%,0%,0%);stroke-opacity:1;stroke-miterlimit:10;" d="M 24 14 C 26.142773 12.666602 28.857227 12.666602 31 14 " transform="matrix(20,0,0,20,-128,-118)"/>
<path style="fill:none;stroke-width:0.1;stroke-linecap:butt;stroke-linejoin:miter;stroke:rgb(0%,0%,0%);stroke-opacity:1;stroke-miterlimit:10;" d="M 26 6 C 26.666602 8.625 26.666602 11.375 26 14 " transform="matrix(20,0,0,20,-128,-118)"/>
<path style="fill:none;stroke-width:0.1;stroke-linecap:butt;stroke-linejoin:miter;stroke:rgb(0%,0%,0%);stroke-opacity:1;stroke-miterlimit:10;" d="M 24.5 6 C 25.833398 8.5 25.833398 11.5 24.5 14 " transform="matrix(20,0,0,20,-128,-118)"/>
<path style="fill:none;stroke-width:0.1;stroke-linecap:butt;stroke-linejoin:miter;stroke:rgb(0%,0%,0%);stroke-opacity:1;stroke-miterlimit:10;" d="M 23.5 6.5 C 24.833398 8.642773 24.833398 11.357227 23.5 13.5 " transform="matrix(20,0,0,20,-128,-118)"/>
<path style="fill:none;stroke-width:0.1;stroke-linecap:butt;stroke-linejoin:miter;stroke:rgb(0%,0%,0%);stroke-opacity:1;stroke-miterlimit:10;" d="M 29 6 C 28.333398 8.625 28.333398 11.375 29 14 " transform="matrix(20,0,0,20,-128,-118)"/>
<path style="fill:none;stroke-width:0.1;stroke-linecap:butt;stroke-linejoin:miter;stroke:rgb(0%,0%,0%);stroke-opacity:1;stroke-miterlimit:10;" d="M 30.5 6 C 29.166602 8.5 29.166602 11.5 30.5 14 " transform="matrix(20,0,0,20,-128,-118)"/>
<path style="fill:none;stroke-width:0.1;stroke-linecap:butt;stroke-linejoin:miter;stroke:rgb(0%,0%,0%);stroke-opacity:1;stroke-miterlimit:10;" d="M 31.5 6.5 C 30.166602 8.642773 30.166602 11.357227 31.5 13.5 " transform="matrix(20,0,0,20,-128,-118)"/>
</g>
</svg>
