<?xml version="1.0" encoding="UTF-8"?>
<svg xmlns="http://www.w3.org/2000/svg" xmlns:xlink="http://www.w3.org/1999/xlink" width="133pt" height="117pt" viewBox="0 0 133 117">
<defs>
<g>
<g id="glyph-0-0">
<path d="M 3.25 -5.109375 L 4.578125 -5.109375 C 4.796875 -5.109375 4.921875 -5.1875 4.921875 -5.359375 C 4.921875 -5.53125 4.8125 -5.609375 4.578125 -5.609375 L 1.390625 -5.609375 C 1.1875 -5.609375 1.078125 -5.53125 1.078125 -5.359375 C 1.078125 -5.1875 1.1875 -5.109375 1.390625 -5.109375 L 2.734375 -5.109375 L 2.734375 -0.515625 L 1.390625 -0.515625 C 1.1875 -0.515625 1.078125 -0.421875 1.078125 -0.265625 C 1.078125 -0.09375 1.1875 0 1.390625 0 L 4.578125 0 C 4.796875 0 4.921875 -0.09375 4.921875 -0.265625 C 4.921875 -0.421875 4.8125 -0.515625 4.578125 -0.515625 L 3.25 -0.515625 Z M 3.25 -5.109375 "/>
</g>
<g id="glyph-0-1">
<path d="M 4.640625 -3.84375 C 4.25 -4.140625 3.71875 -4.3125 3.125 -4.3125 C 1.765625 -4.3125 0.78125 -3.375 0.78125 -2.046875 C 0.78125 -0.75 1.75 0.15625 3.09375 0.15625 C 3.765625 0.15625 4.421875 -0.03125 4.9375 -0.390625 C 5.25 -0.59375 5.390625 -0.765625 5.390625 -0.90625 C 5.390625 -1.03125 5.28125 -1.140625 5.15625 -1.140625 C 5.078125 -1.140625 5.03125 -1.125 4.9375 -1.03125 C 4.4375 -0.578125 3.828125 -0.34375 3.109375 -0.34375 C 2.046875 -0.34375 1.3125 -1.046875 1.3125 -2.046875 C 1.3125 -3.09375 2.03125 -3.8125 3.09375 -3.8125 C 3.921875 -3.8125 4.578125 -3.421875 4.640625 -2.9375 C 4.671875 -2.734375 4.75 -2.65625 4.890625 -2.65625 C 5.0625 -2.65625 5.15625 -2.765625 5.15625 -2.953125 L 5.15625 -3.859375 C 5.15625 -4.0625 5.0625 -4.171875 4.890625 -4.171875 C 4.71875 -4.171875 4.640625 -4.0625 4.640625 -3.859375 Z M 4.640625 -3.84375 "/>
</g>
<g id="glyph-0-2">
<path d="M 1.703125 -2.65625 L 3.046875 -2.65625 L 3.046875 -2.265625 C 3.046875 -2.0625 3.125 -1.953125 3.296875 -1.953125 C 3.46875 -1.953125 3.5625 -2.046875 3.5625 -2.265625 L 3.5625 -3.546875 C 3.5625 -3.765625 3.46875 -3.875 3.296875 -3.875 C 3.125 -3.875 3.046875 -3.765625 3.046875 -3.546875 L 3.046875 -3.15625 L 1.703125 -3.15625 L 1.703125 -5.109375 L 4.515625 -5.109375 L 4.515625 -4.203125 C 4.515625 -3.984375 4.609375 -3.875 4.78125 -3.875 C 4.9375 -3.875 5.03125 -3.984375 5.03125 -4.203125 L 5.03125 -5.609375 L 0.703125 -5.609375 C 0.484375 -5.609375 0.375 -5.53125 0.375 -5.359375 C 0.375 -5.1875 0.484375 -5.109375 0.703125 -5.109375 L 1.1875 -5.109375 L 1.1875 -0.515625 L 0.703125 -0.515625 C 0.484375 -0.515625 0.375 -0.421875 0.375 -0.265625 C 0.375 -0.09375 0.484375 0 0.703125 0 L 5.25 0 L 5.25 -1.609375 C 5.25 -1.828125 5.15625 -1.9375 4.984375 -1.9375 C 4.8125 -1.9375 4.71875 -1.828125 4.71875 -1.609375 L 4.71875 -0.515625 L 1.703125 -0.515625 Z M 1.703125 -2.65625 "/>
</g>
<g id="glyph-0-3">
<path d="M 1.171875 0 L 1.890625 0 L 2.984375 -3.765625 L 4.0625 0 L 4.796875 0 L 5.40625 -5.109375 L 5.515625 -5.109375 C 5.71875 -5.109375 5.84375 -5.1875 5.84375 -5.359375 C 5.84375 -5.53125 5.734375 -5.609375 5.515625 -5.609375 L 4.015625 -5.609375 C 3.8125 -5.609375 3.703125 -5.53125 3.703125 -5.359375 C 3.703125 -5.1875 3.8125 -5.109375 4.015625 -5.109375 L 4.921875 -5.109375 L 4.390625 -0.78125 L 3.359375 -4.390625 L 2.65625 -4.390625 L 1.609375 -0.765625 L 1.09375 -5.109375 L 1.96875 -5.109375 C 2.171875 -5.109375 2.296875 -5.1875 2.296875 -5.359375 C 2.296875 -5.53125 2.1875 -5.609375 1.96875 -5.609375 L 0.46875 -5.609375 C 0.265625 -5.609375 0.15625 -5.53125 0.15625 -5.359375 C 0.15625 -5.1875 0.265625 -5.109375 0.46875 -5.109375 L 0.578125 -5.109375 Z M 1.171875 0 "/>
</g>
<g id="glyph-0-4">
<path d="M 4.390625 -5.21875 C 4 -5.578125 3.53125 -5.734375 2.984375 -5.734375 C 1.90625 -5.734375 1.09375 -5.046875 1.09375 -4.171875 C 1.09375 -3.734375 1.296875 -3.328125 1.640625 -3.09375 C 1.9375 -2.875 2.3125 -2.765625 3.015625 -2.640625 C 3.71875 -2.53125 3.921875 -2.46875 4.15625 -2.328125 C 4.421875 -2.15625 4.578125 -1.859375 4.578125 -1.546875 C 4.578125 -0.859375 3.90625 -0.34375 3 -0.34375 C 2.125 -0.34375 1.421875 -0.8125 1.375 -1.4375 C 1.359375 -1.640625 1.28125 -1.71875 1.125 -1.71875 C 0.953125 -1.71875 0.875 -1.609375 0.875 -1.40625 L 0.875 -0.3125 C 0.875 -0.109375 0.953125 0 1.125 0 C 1.296875 0 1.390625 -0.109375 1.390625 -0.3125 L 1.390625 -0.453125 C 1.796875 -0.0625 2.359375 0.15625 3.015625 0.15625 C 4.25 0.15625 5.125 -0.546875 5.125 -1.53125 C 5.125 -2.046875 4.890625 -2.484375 4.484375 -2.71875 C 4.171875 -2.90625 3.890625 -2.984375 3.125 -3.125 C 2.515625 -3.21875 2.25 -3.296875 2.015625 -3.453125 C 1.78125 -3.609375 1.640625 -3.859375 1.640625 -4.140625 C 1.640625 -4.78125 2.21875 -5.21875 3.015625 -5.21875 C 3.765625 -5.21875 4.34375 -4.8125 4.390625 -4.25 C 4.40625 -4.0625 4.5 -3.96875 4.640625 -3.96875 C 4.8125 -3.96875 4.90625 -4.078125 4.90625 -4.28125 L 4.90625 -5.296875 C 4.90625 -5.5 4.8125 -5.609375 4.640625 -5.609375 C 4.46875 -5.609375 4.390625 -5.5 4.390625 -5.296875 Z M 4.390625 -5.21875 "/>
</g>
<g id="glyph-0-5">
<path d="M 5.046875 0 L 5.046875 -5.109375 L 5.34375 -5.109375 C 5.546875 -5.109375 5.65625 -5.1875 5.65625 -5.359375 C 5.65625 -5.53125 5.546875 -5.609375 5.34375 -5.609375 L 3.84375 -5.609375 C 3.625 -5.609375 3.515625 -5.53125 3.515625 -5.359375 C 3.515625 -5.1875 3.640625 -5.109375 3.84375 -5.109375 L 4.53125 -5.109375 L 4.53125 -0.8125 L 1.578125 -5.609375 L 0.484375 -5.609375 C 0.28125 -5.609375 0.171875 -5.53125 0.171875 -5.359375 C 0.171875 -5.1875 0.28125 -5.109375 0.484375 -5.109375 L 0.984375 -5.109375 L 0.984375 -0.515625 L 0.6875 -0.515625 C 0.484375 -0.515625 0.375 -0.421875 0.375 -0.265625 C 0.375 -0.09375 0.484375 0 0.6875 0 L 2.1875 0 C 2.390625 0 2.515625 -0.09375 2.515625 -0.265625 C 2.515625 -0.421875 2.40625 -0.515625 2.1875 -0.515625 L 1.5 -0.515625 L 1.5 -4.796875 L 4.453125 0 Z M 5.046875 0 "/>
</g>
<g id="glyph-1-0">
<path d="M 2.265625 -2.921875 L 1.125 -2.921875 C 0.96875 -2.921875 0.90625 -2.859375 0.90625 -2.75 C 0.90625 -2.625 0.96875 -2.5625 1.125 -2.5625 L 1.90625 -2.5625 L 1.90625 -0.359375 L 0.828125 -0.359375 C 0.6875 -0.359375 0.609375 -0.296875 0.609375 -0.1875 C 0.609375 -0.0625 0.6875 0 0.828125 0 L 3.359375 0 C 3.5 0 3.578125 -0.0625 3.578125 -0.1875 C 3.578125 -0.296875 3.5 -0.359375 3.359375 -0.359375 L 2.265625 -0.359375 Z M 2.265625 -4.328125 L 1.765625 -4.328125 L 1.765625 -3.546875 L 2.265625 -3.546875 Z M 2.265625 -4.328125 "/>
</g>
<g id="glyph-1-1">
<path d="M 1.4375 -1.0625 L 0.953125 0.671875 C 0.9375 0.703125 0.9375 0.71875 0.9375 0.75 C 0.9375 0.890625 1.03125 0.984375 1.171875 0.984375 C 1.28125 0.984375 1.34375 0.953125 1.421875 0.796875 L 2.453125 -1.0625 Z M 1.890625 -2.90625 C 1.59375 -2.90625 1.375 -2.703125 1.375 -2.4375 C 1.375 -2.15625 1.59375 -1.9375 1.890625 -1.9375 L 1.96875 -1.9375 C 2.265625 -1.9375 2.484375 -2.15625 2.484375 -2.4375 C 2.484375 -2.703125 2.265625 -2.90625 1.96875 -2.90625 Z M 1.890625 -2.90625 "/>
</g>
<g id="glyph-1-2">
<path d="M 2.875 -2.5625 L 2.875 0.15625 C 2.859375 0.609375 2.546875 0.90625 2.109375 0.90625 L 1.21875 0.90625 C 1.0625 0.90625 0.984375 0.96875 0.984375 1.09375 C 0.984375 1.203125 1.0625 1.265625 1.21875 1.265625 L 2.125 1.265625 C 2.75 1.28125 3.25 0.78125 3.234375 0.15625 L 3.234375 -2.921875 L 1.234375 -2.921875 C 1.078125 -2.921875 1 -2.859375 1 -2.75 C 1 -2.625 1.078125 -2.5625 1.234375 -2.5625 Z M 2.921875 -4.328125 L 2.4375 -4.328125 L 2.4375 -3.546875 L 2.921875 -3.546875 Z M 2.921875 -4.328125 "/>
</g>
<g id="glyph-1-3">
<path d="M 1.1875 -1.859375 L 2.125 -1.859375 L 2.125 -1.578125 C 2.125 -1.4375 2.1875 -1.359375 2.3125 -1.359375 C 2.421875 -1.359375 2.484375 -1.4375 2.484375 -1.578125 L 2.484375 -2.484375 C 2.484375 -2.625 2.421875 -2.703125 2.3125 -2.703125 C 2.1875 -2.703125 2.125 -2.625 2.125 -2.484375 L 2.125 -2.203125 L 1.1875 -2.203125 L 1.1875 -3.5625 L 3.15625 -3.5625 L 3.15625 -2.9375 C 3.15625 -2.78125 3.21875 -2.703125 3.34375 -2.703125 C 3.453125 -2.703125 3.515625 -2.78125 3.515625 -2.9375 L 3.515625 -3.921875 L 0.484375 -3.921875 C 0.34375 -3.921875 0.265625 -3.875 0.265625 -3.75 C 0.265625 -3.625 0.34375 -3.5625 0.484375 -3.5625 L 0.828125 -3.5625 L 0.828125 -0.359375 L 0.484375 -0.359375 C 0.34375 -0.359375 0.265625 -0.296875 0.265625 -0.1875 C 0.265625 -0.0625 0.34375 0 0.484375 0 L 3.671875 0 L 3.671875 -1.125 C 3.671875 -1.28125 3.609375 -1.359375 3.484375 -1.359375 C 3.359375 -1.359375 3.296875 -1.28125 3.296875 -1.125 L 3.296875 -0.359375 L 1.1875 -0.359375 Z M 1.1875 -1.859375 "/>
</g>
<g id="glyph-1-4">
<path d="M 0.8125 0 L 1.328125 0 L 2.09375 -2.640625 L 2.84375 0 L 3.359375 0 L 3.78125 -3.5625 L 3.859375 -3.5625 C 4 -3.5625 4.078125 -3.625 4.078125 -3.75 C 4.078125 -3.875 4 -3.921875 3.859375 -3.921875 L 2.8125 -3.921875 C 2.65625 -3.921875 2.578125 -3.875 2.578125 -3.75 C 2.578125 -3.625 2.65625 -3.5625 2.8125 -3.5625 L 3.4375 -3.5625 L 3.0625 -0.546875 L 2.34375 -3.0625 L 1.859375 -3.0625 L 1.125 -0.53125 L 0.765625 -3.5625 L 1.375 -3.5625 C 1.515625 -3.5625 1.609375 -3.625 1.609375 -3.75 C 1.609375 -3.875 1.53125 -3.921875 1.375 -3.921875 L 0.328125 -3.921875 C 0.1875 -3.921875 0.109375 -3.875 0.109375 -3.75 C 0.109375 -3.625 0.1875 -3.5625 0.328125 -3.5625 L 0.40625 -3.5625 Z M 0.8125 0 "/>
</g>
<g id="glyph-1-5">
<path d="M 3.078125 -3.65625 C 2.796875 -3.890625 2.46875 -4 2.078125 -4 C 1.328125 -4 0.765625 -3.53125 0.765625 -2.90625 C 0.765625 -2.609375 0.90625 -2.328125 1.140625 -2.171875 C 1.359375 -2.015625 1.609375 -1.9375 2.109375 -1.84375 C 2.59375 -1.765625 2.734375 -1.734375 2.90625 -1.625 C 3.09375 -1.515625 3.203125 -1.296875 3.203125 -1.078125 C 3.203125 -0.59375 2.734375 -0.25 2.09375 -0.25 C 1.484375 -0.25 1 -0.578125 0.96875 -1 C 0.953125 -1.140625 0.90625 -1.203125 0.78125 -1.203125 C 0.671875 -1.203125 0.609375 -1.125 0.609375 -0.984375 L 0.609375 -0.21875 C 0.609375 -0.078125 0.671875 0 0.78125 0 C 0.90625 0 0.96875 -0.078125 0.96875 -0.21875 L 0.96875 -0.328125 C 1.25 -0.046875 1.65625 0.109375 2.109375 0.109375 C 2.96875 0.109375 3.578125 -0.390625 3.578125 -1.0625 C 3.578125 -1.421875 3.421875 -1.734375 3.140625 -1.90625 C 2.921875 -2.03125 2.71875 -2.09375 2.1875 -2.1875 C 1.75 -2.25 1.578125 -2.3125 1.40625 -2.421875 C 1.234375 -2.515625 1.15625 -2.703125 1.15625 -2.90625 C 1.15625 -3.34375 1.546875 -3.65625 2.109375 -3.65625 C 2.640625 -3.65625 3.03125 -3.359375 3.078125 -2.96875 C 3.078125 -2.84375 3.140625 -2.78125 3.25 -2.78125 C 3.359375 -2.78125 3.421875 -2.84375 3.421875 -3 L 3.421875 -3.703125 C 3.421875 -3.84375 3.359375 -3.921875 3.25 -3.921875 C 3.125 -3.921875 3.078125 -3.84375 3.078125 -3.703125 Z M 3.078125 -3.65625 "/>
</g>
<g id="glyph-1-6">
<path d="M 3.53125 0 L 3.53125 -3.5625 L 3.734375 -3.5625 C 3.875 -3.5625 3.953125 -3.625 3.953125 -3.75 C 3.953125 -3.875 3.875 -3.921875 3.734375 -3.921875 L 2.6875 -3.921875 C 2.53125 -3.921875 2.453125 -3.875 2.453125 -3.75 C 2.453125 -3.625 2.546875 -3.5625 2.6875 -3.5625 L 3.171875 -3.5625 L 3.171875 -0.578125 L 1.109375 -3.921875 L 0.34375 -3.921875 C 0.1875 -3.921875 0.125 -3.875 0.125 -3.75 C 0.125 -3.625 0.1875 -3.5625 0.34375 -3.5625 L 0.6875 -3.5625 L 0.6875 -0.359375 L 0.484375 -0.359375 C 0.328125 -0.359375 0.265625 -0.296875 0.265625 -0.1875 C 0.265625 -0.0625 0.34375 0 0.484375 0 L 1.53125 0 C 1.671875 0 1.75 -0.0625 1.75 -0.1875 C 1.75 -0.296875 1.671875 -0.359375 1.53125 -0.359375 L 1.046875 -0.359375 L 1.046875 -3.359375 L 3.109375 0 Z M 3.53125 0 "/>
</g>
<g id="glyph-2-0">
<path d="M 2.265625 -1.78125 L 3.484375 -1.78125 C 3.640625 -1.78125 3.71875 -1.84375 3.71875 -1.953125 C 3.71875 -2.0625 3.640625 -2.125 3.484375 -2.125 L 2.265625 -2.125 L 2.265625 -3.46875 C 2.265625 -3.609375 2.203125 -3.6875 2.09375 -3.6875 C 1.96875 -3.6875 1.90625 -3.609375 1.90625 -3.46875 L 1.90625 -2.140625 L 0.6875 -2.140625 L 0.625 -2.125 C 0.515625 -2.109375 0.46875 -2.0625 0.46875 -1.953125 C 0.46875 -1.84375 0.546875 -1.78125 0.6875 -1.78125 L 1.90625 -1.78125 L 1.90625 -0.4375 C 1.90625 -0.296875 1.96875 -0.21875 2.09375 -0.21875 C 2.203125 -0.21875 2.265625 -0.296875 2.265625 -0.4375 Z M 2.265625 -1.78125 "/>
</g>
<g id="glyph-2-1">
<path d="M 2.28125 -4.265625 L 0.9375 -3.859375 C 0.8125 -3.8125 0.765625 -3.765625 0.765625 -3.671875 C 0.765625 -3.578125 0.84375 -3.5 0.9375 -3.5 C 0.953125 -3.5 1.015625 -3.515625 1.046875 -3.515625 L 1.921875 -3.796875 L 1.921875 -0.359375 L 0.984375 -0.359375 C 0.828125 -0.359375 0.75 -0.296875 0.75 -0.1875 C 0.75 -0.0625 0.84375 0 0.984375 0 L 3.21875 0 C 3.359375 0 3.4375 -0.0625 3.4375 -0.1875 C 3.4375 -0.296875 3.359375 -0.359375 3.21875 -0.359375 L 2.28125 -0.359375 Z M 2.28125 -4.265625 "/>
</g>
<g id="glyph-3-0">
</g>
<g id="glyph-4-0">
<path d="M 1.625 -2.09375 L 0.796875 -2.09375 C 0.6875 -2.09375 0.640625 -2.046875 0.640625 -1.96875 C 0.640625 -1.875 0.703125 -1.828125 0.796875 -1.828125 L 1.359375 -1.828125 L 1.359375 -0.25 L 0.59375 -0.25 C 0.484375 -0.25 0.4375 -0.203125 0.4375 -0.125 C 0.4375 -0.046875 0.484375 0 0.59375 0 L 2.390625 0 C 2.5 0 2.5625 -0.046875 2.5625 -0.125 C 2.5625 -0.203125 2.5 -0.25 2.390625 -0.25 L 1.625 -0.25 Z M 1.609375 -3.09375 L 1.265625 -3.09375 L 1.265625 -2.53125 L 1.609375 -2.53125 Z M 1.609375 -3.09375 "/>
</g>
<g id="glyph-4-1">
<path d="M 1.03125 -0.765625 L 0.671875 0.484375 C 0.671875 0.5 0.671875 0.515625 0.671875 0.53125 C 0.671875 0.640625 0.75 0.703125 0.84375 0.703125 C 0.921875 0.703125 0.953125 0.671875 1.015625 0.578125 L 1.765625 -0.765625 Z M 1.34375 -2.078125 C 1.140625 -2.078125 0.984375 -1.9375 0.984375 -1.734375 C 0.984375 -1.546875 1.140625 -1.390625 1.34375 -1.390625 L 1.40625 -1.390625 C 1.609375 -1.390625 1.78125 -1.546875 1.78125 -1.734375 C 1.78125 -1.9375 1.609375 -2.078125 1.40625 -2.078125 Z M 1.34375 -2.078125 "/>
</g>
<g id="glyph-4-2">
<path d="M 2.046875 -1.828125 L 2.046875 0.109375 C 2.046875 0.4375 1.828125 0.65625 1.515625 0.65625 L 0.875 0.65625 C 0.765625 0.65625 0.703125 0.6875 0.703125 0.78125 C 0.703125 0.859375 0.765625 0.90625 0.875 0.90625 L 1.515625 0.90625 C 1.96875 0.921875 2.328125 0.5625 2.3125 0.109375 L 2.3125 -2.09375 L 0.875 -2.09375 C 0.765625 -2.09375 0.71875 -2.046875 0.71875 -1.96875 C 0.71875 -1.875 0.765625 -1.828125 0.875 -1.828125 Z M 2.09375 -3.09375 L 1.75 -3.09375 L 1.75 -2.53125 L 2.09375 -2.53125 Z M 2.09375 -3.09375 "/>
</g>
<g id="glyph-5-0">
<path d="M 1.625 -1.265625 L 2.5 -1.265625 C 2.609375 -1.265625 2.65625 -1.3125 2.65625 -1.40625 C 2.65625 -1.484375 2.609375 -1.53125 2.5 -1.53125 L 1.625 -1.53125 L 1.625 -2.484375 C 1.625 -2.59375 1.578125 -2.640625 1.5 -2.640625 C 1.40625 -2.640625 1.359375 -2.59375 1.359375 -2.484375 L 1.359375 -1.53125 L 0.5 -1.53125 L 0.453125 -1.515625 C 0.375 -1.515625 0.328125 -1.46875 0.328125 -1.40625 C 0.328125 -1.3125 0.390625 -1.265625 0.5 -1.265625 L 1.359375 -1.265625 L 1.359375 -0.3125 C 1.359375 -0.203125 1.40625 -0.15625 1.5 -0.15625 C 1.578125 -0.15625 1.625 -0.203125 1.625 -0.3125 Z M 1.625 -1.265625 "/>
</g>
<g id="glyph-5-1">
<path d="M 1.625 -3.0625 L 0.671875 -2.75 C 0.578125 -2.71875 0.546875 -2.703125 0.546875 -2.625 C 0.546875 -2.5625 0.609375 -2.5 0.671875 -2.5 C 0.671875 -2.5 0.734375 -2.515625 0.75 -2.515625 L 1.375 -2.71875 L 1.375 -0.25 L 0.703125 -0.25 C 0.59375 -0.25 0.53125 -0.203125 0.53125 -0.125 C 0.53125 -0.046875 0.59375 0 0.703125 0 L 2.296875 0 C 2.40625 0 2.453125 -0.046875 2.453125 -0.125 C 2.453125 -0.203125 2.40625 -0.25 2.296875 -0.25 L 1.625 -0.25 Z M 1.625 -3.0625 "/>
</g>
<g id="glyph-6-0">
</g>
</g>
</defs>
<path fill="none" stroke-width="5" stroke-linecap="butt" stroke-linejoin="round" stroke="rgb(0%, 0%, 0%)" stroke-opacity="1" stroke-miterlimit="10" d="M 591.757812 627.929688 C 591.757812 639.570312 587.148438 650.703125 578.945312 658.945312 C 570.703125 667.148438 559.570312 671.757812 547.929688 671.757812 C 536.328125 671.757812 525.15625 667.148438 516.953125 658.945312 C 508.710938 650.703125 504.101562 639.570312 504.101562 627.929688 C 504.101562 616.328125 508.710938 605.15625 516.953125 596.953125 C 525.15625 588.710938 536.328125 584.101562 547.929688 584.101562 C 559.570312 584.101562 570.703125 588.710938 578.945312 596.953125 C 587.148438 605.15625 591.757812 616.328125 591.757812 627.929688 Z M 591.757812 627.929688 " transform="matrix(0.1, 0, 0, -0.1, 0, 117)"/>
<path fill="none" stroke-width="5" stroke-linecap="butt" stroke-linejoin="round" stroke="rgb(0%, 0%, 0%)" stroke-opacity="1" stroke-miterlimit="10" d="M 591.757812 1121.09375 C 591.757812 1132.734375 587.148438 1143.867188 578.945312 1152.109375 C 570.703125 1160.3125 559.570312 1164.921875 547.929688 1164.921875 C 536.328125 1164.921875 525.15625 1160.3125 516.953125 1152.109375 C 508.710938 1143.867188 504.101562 1132.734375 504.101562 1121.09375 C 504.101562 1109.453125 508.710938 1098.320312 516.953125 1090.117188 C 525.15625 1081.875 536.328125 1077.265625 547.929688 1077.265625 C 559.570312 1077.265625 570.703125 1081.875 578.945312 1090.117188 C 587.148438 1098.320312 591.757812 1109.453125 591.757812 1121.09375 Z M 591.757812 1121.09375 " transform="matrix(0.1, 0, 0, -0.1, 0, 117)"/>
<path fill="none" stroke-width="5" stroke-linecap="butt" stroke-linejoin="round" stroke="rgb(0%, 0%, 0%)" stroke-opacity="1" stroke-miterlimit="10" d="M 591.757812 134.804688 C 591.757812 146.40625 587.148438 157.578125 578.945312 165.78125 C 570.703125 174.023438 559.570312 178.632812 547.929688 178.632812 C 536.328125 178.632812 525.15625 174.023438 516.953125 165.78125 C 508.710938 157.578125 504.101562 146.40625 504.101562 134.804688 C 504.101562 123.164062 508.710938 112.03125 516.953125 103.789062 C 525.15625 95.585938 536.328125 90.9375 547.929688 90.9375 C 559.570312 90.9375 570.703125 95.585938 578.945312 103.789062 C 587.148438 112.03125 591.757812 123.164062 591.757812 134.804688 Z M 591.757812 134.804688 " transform="matrix(0.1, 0, 0, -0.1, 0, 117)"/>
<path fill="none" stroke-width="5" stroke-linecap="butt" stroke-linejoin="round" stroke="rgb(0%, 0%, 0%)" stroke-opacity="1" stroke-miterlimit="10" d="M 98.632812 627.929688 C 98.632812 639.570312 94.023438 650.703125 85.78125 658.945312 C 77.578125 667.148438 66.40625 671.757812 54.804688 671.757812 C 43.164062 671.757812 32.03125 667.148438 23.789062 658.945312 C 15.585938 650.703125 10.9375 639.570312 10.9375 627.929688 C 10.9375 616.328125 15.585938 605.15625 23.789062 596.953125 C 32.03125 588.710938 43.164062 584.101562 54.804688 584.101562 C 66.40625 584.101562 77.578125 588.710938 85.78125 596.953125 C 94.023438 605.15625 98.632812 616.328125 98.632812 627.929688 Z M 98.632812 627.929688 " transform="matrix(0.1, 0, 0, -0.1, 0, 117)"/>
<path fill="none" stroke-width="5" stroke-linecap="butt" stroke-linejoin="round" stroke="rgb(0%, 0%, 0%)" stroke-opacity="1" stroke-miterlimit="10" d="M 1084.921875 627.929688 C 1084.921875 639.570312 1080.3125 650.703125 1072.109375 658.945312 C 1063.867188 667.148438 1052.734375 671.757812 1041.09375 671.757812 C 1029.453125 671.757812 1018.320312 667.148438 1010.117188 658.945312 C 1001.875 650.703125 997.265625 639.570312 997.265625 627.929688 C 997.265625 616.328125 1001.875 605.15625 1010.117188 596.953125 C 1018.320312 588.710938 1029.453125 584.101562 1041.09375 584.101562 C 1052.734375 584.101562 1063.867188 588.710938 1072.109375 596.953125 C 1080.3125 605.15625 1084.921875 616.328125 1084.921875 627.929688 Z M 1084.921875 627.929688 " transform="matrix(0.1, 0, 0, -0.1, 0, 117)"/>
<path fill="none" stroke-width="5" stroke-linecap="round" stroke-linejoin="round" stroke="rgb(0%, 0%, 0%)" stroke-opacity="1" stroke-miterlimit="10" d="M 98.632812 627.929688 L 504.101562 627.929688 " transform="matrix(0.1, 0, 0, -0.1, 0, 117)"/>
<path fill="none" stroke-width="5" stroke-linecap="round" stroke-linejoin="round" stroke="rgb(0%, 0%, 0%)" stroke-opacity="1" stroke-miterlimit="10" d="M 591.757812 627.929688 L 997.265625 627.929688 " transform="matrix(0.1, 0, 0, -0.1, 0, 117)"/>
<path fill="none" stroke-width="5" stroke-linecap="round" stroke-linejoin="round" stroke="rgb(0%, 0%, 0%)" stroke-opacity="1" stroke-miterlimit="10" d="M 547.929688 178.632812 L 547.929688 584.101562 " transform="matrix(0.1, 0, 0, -0.1, 0, 117)"/>
<path fill="none" stroke-width="5" stroke-linecap="round" stroke-linejoin="round" stroke="rgb(0%, 0%, 0%)" stroke-opacity="1" stroke-miterlimit="10" d="M 547.929688 671.757812 L 547.929688 1077.265625 " transform="matrix(0.1, 0, 0, -0.1, 0, 117)"/>
<g fill="rgb(0%, 0%, 0%)" fill-opacity="1">
<use xlink:href="#glyph-0-0" x="58.8723" y="63.8555"/>
</g>
<g fill="rgb(0%, 0%, 0%)" fill-opacity="1">
<use xlink:href="#glyph-1-0" x="63.2516" y="65.35003"/>
<use xlink:href="#glyph-1-1" x="67.43591" y="65.35003"/>
<use xlink:href="#glyph-1-2" x="71.62022" y="65.35003"/>
</g>
<g fill="rgb(0%, 0%, 0%)" fill-opacity="1">
<use xlink:href="#glyph-0-0" x="108.6227" y="63.8555"/>
</g>
<g fill="rgb(0%, 0%, 0%)" fill-opacity="1">
<use xlink:href="#glyph-1-0" x="113.00239" y="65.35003"/>
</g>
<g fill="rgb(0%, 0%, 0%)" fill-opacity="1">
<use xlink:href="#glyph-2-0" x="115.82114" y="65.35003"/>
<use xlink:href="#glyph-2-1" x="120.00545" y="65.35003"/>
</g>
<g fill="rgb(0%, 0%, 0%)" fill-opacity="1">
<use xlink:href="#glyph-1-1" x="125.90824" y="65.35003"/>
<use xlink:href="#glyph-1-2" x="130.09255" y="65.35003"/>
</g>
<g fill="rgb(0%, 0%, 0%)" fill-opacity="1">
<use xlink:href="#glyph-0-0" x="9.93824" y="63.8555"/>
</g>
<g fill="rgb(0%, 0%, 0%)" fill-opacity="1">
<use xlink:href="#glyph-1-0" x="14.31754" y="65.35003"/>
</g>
<g fill="rgb(0%, 0%, 0%)" fill-opacity="1">
<use xlink:href="#glyph-3-0" x="17.13629" y="65.35003"/>
</g>
<g fill="rgb(0%, 0%, 0%)" fill-opacity="1">
<use xlink:href="#glyph-2-1" x="23.36285" y="65.35003"/>
</g>
<g fill="rgb(0%, 0%, 0%)" fill-opacity="1">
<use xlink:href="#glyph-1-1" x="27.33394" y="65.35003"/>
<use xlink:href="#glyph-1-2" x="31.51825" y="65.35003"/>
</g>
<g fill="rgb(0%, 0%, 0%)" fill-opacity="1">
<use xlink:href="#glyph-0-0" x="59.30814" y="113.17033"/>
</g>
<g fill="rgb(0%, 0%, 0%)" fill-opacity="1">
<use xlink:href="#glyph-1-0" x="63.68783" y="114.66486"/>
<use xlink:href="#glyph-1-1" x="67.87214" y="114.66486"/>
<use xlink:href="#glyph-1-2" x="72.05645" y="114.66486"/>
</g>
<g fill="rgb(0%, 0%, 0%)" fill-opacity="1">
<use xlink:href="#glyph-2-0" x="72.57221" y="114.66486"/>
<use xlink:href="#glyph-2-1" x="76.75652" y="114.66486"/>
</g>
<g fill="rgb(0%, 0%, 0%)" fill-opacity="1">
<use xlink:href="#glyph-0-0" x="59.25311" y="14.54086"/>
</g>
<g fill="rgb(0%, 0%, 0%)" fill-opacity="1">
<use xlink:href="#glyph-1-0" x="63.63241" y="16.03539"/>
<use xlink:href="#glyph-1-1" x="67.81672" y="16.03539"/>
<use xlink:href="#glyph-1-2" x="72.00103" y="16.03539"/>
</g>
<g fill="rgb(0%, 0%, 0%)" fill-opacity="1">
<use xlink:href="#glyph-3-0" x="72.51718" y="16.03539"/>
</g>
<g fill="rgb(0%, 0%, 0%)" fill-opacity="1">
<use xlink:href="#glyph-2-1" x="78.74374" y="16.03539"/>
</g>
<g fill="rgb(0%, 0%, 0%)" fill-opacity="1">
<use xlink:href="#glyph-0-1" x="68.27614" y="49.14169"/>
</g>
<g fill="rgb(0%, 0%, 0%)" fill-opacity="1">
<use xlink:href="#glyph-1-3" x="72.58747" y="50.63622"/>
</g>
<g fill="rgb(0%, 0%, 0%)" fill-opacity="1">
<use xlink:href="#glyph-4-0" x="78.43669" y="51.632314"/>
</g>
<g fill="rgb(0%, 0%, 0%)" fill-opacity="1">
<use xlink:href="#glyph-5-0" x="81.0945" y="51.632314"/>
<use xlink:href="#glyph-5-1" x="84.083292" y="51.632314"/>
</g>
<g fill="rgb(0%, 0%, 0%)" fill-opacity="1">
<use xlink:href="#glyph-4-1" x="89.60427" y="51.632314"/>
<use xlink:href="#glyph-4-2" x="92.593062" y="51.632314"/>
</g>
<g fill="rgb(0%, 0%, 0%)" fill-opacity="1">
<use xlink:href="#glyph-0-1" x="18.00117" y="49.141684"/>
</g>
<g fill="rgb(0%, 0%, 0%)" fill-opacity="1">
<use xlink:href="#glyph-1-4" x="22.3125" y="50.636214"/>
</g>
<g fill="rgb(0%, 0%, 0%)" fill-opacity="1">
<use xlink:href="#glyph-4-0" x="29.80547" y="51.632308"/>
</g>
<g fill="rgb(0%, 0%, 0%)" fill-opacity="1">
<use xlink:href="#glyph-6-0" x="32.46289" y="51.632308"/>
</g>
<g fill="rgb(0%, 0%, 0%)" fill-opacity="1">
<use xlink:href="#glyph-5-1" x="37.85976" y="51.632308"/>
</g>
<g fill="rgb(0%, 0%, 0%)" fill-opacity="1">
<use xlink:href="#glyph-4-1" x="41.2496" y="51.632308"/>
<use xlink:href="#glyph-4-2" x="44.238392" y="51.632308"/>
</g>
<g fill="rgb(0%, 0%, 0%)" fill-opacity="1">
<use xlink:href="#glyph-0-1" x="57.7957" y="87.497508"/>
</g>
<g fill="rgb(0%, 0%, 0%)" fill-opacity="1">
<use xlink:href="#glyph-1-5" x="62.10703" y="88.992038"/>
</g>
<g fill="rgb(0%, 0%, 0%)" fill-opacity="1">
<use xlink:href="#glyph-4-0" x="66.99922" y="89.988132"/>
<use xlink:href="#glyph-4-1" x="69.988012" y="89.988132"/>
<use xlink:href="#glyph-4-2" x="72.976804" y="89.988132"/>
</g>
<g fill="rgb(0%, 0%, 0%)" fill-opacity="1">
<use xlink:href="#glyph-5-0" x="75.16406" y="89.988132"/>
<use xlink:href="#glyph-5-1" x="78.152852" y="89.988132"/>
</g>
<g fill="rgb(0%, 0%, 0%)" fill-opacity="1">
<use xlink:href="#glyph-0-1" x="56.94846" y="27.224032"/>
</g>
<g fill="rgb(0%, 0%, 0%)" fill-opacity="1">
<use xlink:href="#glyph-1-6" x="61.25979" y="28.718172"/>
</g>
<g fill="rgb(0%, 0%, 0%)" fill-opacity="1">
<use xlink:href="#glyph-4-0" x="67.56995" y="29.714656"/>
<use xlink:href="#glyph-4-1" x="70.558742" y="29.714656"/>
<use xlink:href="#glyph-4-2" x="73.547534" y="29.714656"/>
</g>
<g fill="rgb(0%, 0%, 0%)" fill-opacity="1">
<use xlink:href="#glyph-6-0" x="75.73479" y="29.714656"/>
</g>
<g fill="rgb(0%, 0%, 0%)" fill-opacity="1">
<use xlink:href="#glyph-5-1" x="81.13127" y="29.714656"/>
</g>
<g fill="rgb(0%, 0%, 0%)" fill-opacity="1">
<use xlink:href="#glyph-0-2" x="100.14537" y="46.650956"/>
</g>
<g fill="rgb(0%, 0%, 0%)" fill-opacity="1">
<use xlink:href="#glyph-0-3" x="1.179394" y="46.650956"/>
</g>
<g fill="rgb(0%, 0%, 0%)" fill-opacity="1">
<use xlink:href="#glyph-0-4" x="40.49417" y="106.924756"/>
</g>
<g fill="rgb(0%, 0%, 0%)" fill-opacity="1">
<use xlink:href="#glyph-0-5" x="39.29026" y="8.294656"/>
</g>
</svg>
